<mxfile host="Electron" modified="2023-11-08T16:17:25.056Z" agent="Mozilla/5.0 (Windows NT 10.0; Win64; x64) AppleWebKit/537.36 (KHTML, like Gecko) draw.io/22.0.3 Chrome/114.0.5735.289 Electron/25.8.4 Safari/537.36" etag="eO5Sc_vJwUjU37xnIjYy" version="22.0.3" type="device" pages="3">
  <diagram id="Z_h5-q5Wg3yME80gFP2f" name="use case view">
    <mxGraphModel dx="1487" dy="1898" grid="1" gridSize="10" guides="1" tooltips="1" connect="1" arrows="1" fold="1" page="1" pageScale="1" pageWidth="850" pageHeight="1100" math="0" shadow="0">
      <root>
        <mxCell id="0" />
        <mxCell id="1" parent="0" />
        <mxCell id="9VKqTa6bNRz3vIXL38HM-22" style="edgeStyle=orthogonalEdgeStyle;rounded=0;orthogonalLoop=1;jettySize=auto;html=1;endArrow=none;endFill=0;" parent="1" source="9VKqTa6bNRz3vIXL38HM-1" target="9VKqTa6bNRz3vIXL38HM-7" edge="1">
          <mxGeometry relative="1" as="geometry">
            <mxPoint x="1718" y="525" as="targetPoint" />
          </mxGeometry>
        </mxCell>
        <mxCell id="9VKqTa6bNRz3vIXL38HM-23" value="Обновить статус –►" style="edgeLabel;html=1;align=center;verticalAlign=middle;resizable=0;points=[];fontStyle=1" parent="9VKqTa6bNRz3vIXL38HM-22" vertex="1" connectable="0">
          <mxGeometry x="-0.1695" y="2" relative="1" as="geometry">
            <mxPoint x="34" y="-13" as="offset" />
          </mxGeometry>
        </mxCell>
        <mxCell id="9VKqTa6bNRz3vIXL38HM-1" value="Customer" style="shape=umlActor;verticalLabelPosition=bottom;verticalAlign=top;html=1;outlineConnect=0;" parent="1" vertex="1">
          <mxGeometry x="1730" y="495" width="30" height="60" as="geometry" />
        </mxCell>
        <mxCell id="9VKqTa6bNRz3vIXL38HM-3" value="2: Провалидировать заказ и новый статус –►&lt;br style=&quot;border-color: var(--border-color);&quot;&gt;&lt;span style=&quot;&quot;&gt;4: Обновить статус заказа –►&lt;/span&gt;" style="edgeStyle=orthogonalEdgeStyle;rounded=0;orthogonalLoop=1;jettySize=auto;html=1;fontStyle=1;endArrow=none;endFill=0;align=right;" parent="1" source="9VKqTa6bNRz3vIXL38HM-7" target="9VKqTa6bNRz3vIXL38HM-10" edge="1">
          <mxGeometry x="1" y="25" relative="1" as="geometry">
            <mxPoint as="offset" />
          </mxGeometry>
        </mxCell>
        <mxCell id="9VKqTa6bNRz3vIXL38HM-4" value="1: Верификация токена пользователя –►" style="edgeStyle=orthogonalEdgeStyle;rounded=0;orthogonalLoop=1;jettySize=auto;html=1;endArrow=none;endFill=0;fontStyle=1" parent="1" source="9VKqTa6bNRz3vIXL38HM-7" target="9VKqTa6bNRz3vIXL38HM-8" edge="1">
          <mxGeometry x="0.307" y="10" relative="1" as="geometry">
            <Array as="points">
              <mxPoint x="1998" y="620" />
            </Array>
            <mxPoint as="offset" />
          </mxGeometry>
        </mxCell>
        <mxCell id="9VKqTa6bNRz3vIXL38HM-5" value="3: Создать новый узел истории –►" style="edgeStyle=orthogonalEdgeStyle;rounded=0;orthogonalLoop=1;jettySize=auto;html=1;entryX=0;entryY=0.5;entryDx=0;entryDy=0;exitX=0.5;exitY=0;exitDx=0;exitDy=0;fontStyle=1;endArrow=none;endFill=0;" parent="1" source="9VKqTa6bNRz3vIXL38HM-7" target="9VKqTa6bNRz3vIXL38HM-15" edge="1">
          <mxGeometry x="0.3915" y="15" relative="1" as="geometry">
            <mxPoint as="offset" />
          </mxGeometry>
        </mxCell>
        <mxCell id="9VKqTa6bNRz3vIXL38HM-7" value=": OrderController" style="html=1;whiteSpace=wrap;fontStyle=5" parent="1" vertex="1">
          <mxGeometry x="1918" y="500" width="160" height="50" as="geometry" />
        </mxCell>
        <mxCell id="9VKqTa6bNRz3vIXL38HM-8" value=": Auth Manager" style="html=1;whiteSpace=wrap;fontStyle=5" parent="1" vertex="1">
          <mxGeometry x="2258" y="590" width="110" height="50" as="geometry" />
        </mxCell>
        <mxCell id="9VKqTa6bNRz3vIXL38HM-10" value=": OrderService" style="html=1;whiteSpace=wrap;fontStyle=5" parent="1" vertex="1">
          <mxGeometry x="2330" y="500" width="160" height="50" as="geometry" />
        </mxCell>
        <mxCell id="9VKqTa6bNRz3vIXL38HM-15" value=": OrderStatusService" style="html=1;whiteSpace=wrap;fontStyle=5" parent="1" vertex="1">
          <mxGeometry x="2258" y="380" width="160" height="50" as="geometry" />
        </mxCell>
      </root>
    </mxGraphModel>
  </diagram>
  <diagram id="Dxy8fd4FYHdvWLv7uogT" name="logical view">
    <mxGraphModel dx="75" dy="-549" grid="1" gridSize="10" guides="1" tooltips="1" connect="1" arrows="1" fold="1" page="1" pageScale="1" pageWidth="850" pageHeight="1100" math="0" shadow="0">
      <root>
        <mxCell id="0" />
        <mxCell id="1" parent="0" />
        <mxCell id="sZ7DzczUdxClGEDLlRU_-1" value="&lt;span style=&quot;color: rgb(0, 0, 0); font-family: Helvetica; font-size: 11px; font-style: normal; font-variant-ligatures: normal; font-variant-caps: normal; font-weight: 700; letter-spacing: normal; orphans: 2; text-indent: 0px; text-transform: none; widows: 2; word-spacing: 0px; -webkit-text-stroke-width: 0px; background-color: rgb(255, 255, 255); text-decoration-thickness: initial; text-decoration-style: initial; text-decoration-color: initial; float: none; display: inline !important;&quot;&gt;2: Провалидировать заказ и новый статус –►&lt;br&gt;4: Обновить статус заказа –►&lt;br&gt;&lt;/span&gt;" style="edgeStyle=orthogonalEdgeStyle;rounded=0;orthogonalLoop=1;jettySize=auto;html=1;endArrow=none;endFill=0;align=right;" parent="1" source="sZ7DzczUdxClGEDLlRU_-5" target="sZ7DzczUdxClGEDLlRU_-12" edge="1">
          <mxGeometry x="1" y="-15" relative="1" as="geometry">
            <mxPoint as="offset" />
          </mxGeometry>
        </mxCell>
        <mxCell id="sZ7DzczUdxClGEDLlRU_-2" value="&lt;span style=&quot;color: rgb(0, 0, 0); font-family: Helvetica; font-size: 11px; font-style: normal; font-variant-ligatures: normal; font-variant-caps: normal; font-weight: 700; letter-spacing: normal; orphans: 2; text-align: center; text-indent: 0px; text-transform: none; widows: 2; word-spacing: 0px; -webkit-text-stroke-width: 0px; background-color: rgb(255, 255, 255); text-decoration-thickness: initial; text-decoration-style: initial; text-decoration-color: initial; float: none; display: inline !important;&quot;&gt;1: Верификация токена –►&lt;/span&gt;" style="edgeStyle=orthogonalEdgeStyle;rounded=0;orthogonalLoop=1;jettySize=auto;html=1;endArrow=none;endFill=0;" parent="1" source="sZ7DzczUdxClGEDLlRU_-5" target="sZ7DzczUdxClGEDLlRU_-7" edge="1">
          <mxGeometry x="0.4576" y="15" relative="1" as="geometry">
            <Array as="points">
              <mxPoint x="1690" y="1595" />
            </Array>
            <mxPoint as="offset" />
          </mxGeometry>
        </mxCell>
        <mxCell id="sZ7DzczUdxClGEDLlRU_-3" value="&lt;span style=&quot;color: rgb(0, 0, 0); font-family: Helvetica; font-size: 11px; font-style: normal; font-variant-ligatures: normal; font-variant-caps: normal; font-weight: 700; letter-spacing: normal; orphans: 2; text-align: center; text-indent: 0px; text-transform: none; widows: 2; word-spacing: 0px; -webkit-text-stroke-width: 0px; background-color: rgb(255, 255, 255); text-decoration-thickness: initial; text-decoration-style: initial; text-decoration-color: initial; float: none; display: inline !important;&quot;&gt;3: Создать новый узел истории –►&lt;/span&gt;" style="edgeStyle=orthogonalEdgeStyle;rounded=0;orthogonalLoop=1;jettySize=auto;html=1;entryX=0;entryY=0.5;entryDx=0;entryDy=0;exitX=0.5;exitY=0;exitDx=0;exitDy=0;endArrow=none;endFill=0;" parent="1" source="sZ7DzczUdxClGEDLlRU_-5" target="sZ7DzczUdxClGEDLlRU_-19" edge="1">
          <mxGeometry x="0.4521" y="15" relative="1" as="geometry">
            <mxPoint as="offset" />
          </mxGeometry>
        </mxCell>
        <mxCell id="sZ7DzczUdxClGEDLlRU_-5" value="&lt;b&gt;&lt;u&gt;:OrderController&lt;/u&gt;&lt;/b&gt;" style="html=1;whiteSpace=wrap;" parent="1" vertex="1">
          <mxGeometry x="1610" y="1430" width="160" height="50" as="geometry" />
        </mxCell>
        <mxCell id="sZ7DzczUdxClGEDLlRU_-6" value="&lt;span&gt;1.1:Проверка токена в SSO&amp;nbsp;&lt;/span&gt;–►" style="edgeStyle=orthogonalEdgeStyle;rounded=0;orthogonalLoop=1;jettySize=auto;html=1;endArrow=none;endFill=0;fontStyle=1" parent="1" source="sZ7DzczUdxClGEDLlRU_-7" target="sZ7DzczUdxClGEDLlRU_-29" edge="1">
          <mxGeometry x="0.1" y="15" relative="1" as="geometry">
            <mxPoint as="offset" />
          </mxGeometry>
        </mxCell>
        <mxCell id="sZ7DzczUdxClGEDLlRU_-7" value=":Auth Manager" style="html=1;whiteSpace=wrap;fontStyle=5" parent="1" vertex="1">
          <mxGeometry x="1870" y="1570" width="110" height="50" as="geometry" />
        </mxCell>
        <mxCell id="sZ7DzczUdxClGEDLlRU_-9" value="2.1:Обновить сущность Order&amp;nbsp;–►" style="edgeStyle=orthogonalEdgeStyle;rounded=0;orthogonalLoop=1;jettySize=auto;html=1;fontStyle=1;endArrow=none;endFill=0;" parent="1" source="sZ7DzczUdxClGEDLlRU_-12" target="sZ7DzczUdxClGEDLlRU_-32" edge="1">
          <mxGeometry x="0.2593" y="15" relative="1" as="geometry">
            <Array as="points">
              <mxPoint x="2250" y="1455" />
              <mxPoint x="2250" y="1420" />
            </Array>
            <mxPoint as="offset" />
          </mxGeometry>
        </mxCell>
        <mxCell id="sZ7DzczUdxClGEDLlRU_-12" value="&lt;u&gt;:OrderService&lt;/u&gt;" style="html=1;whiteSpace=wrap;fontStyle=1" parent="1" vertex="1">
          <mxGeometry x="2060" y="1430" width="160" height="50" as="geometry" />
        </mxCell>
        <mxCell id="sZ7DzczUdxClGEDLlRU_-18" value="3.1: Создать сущность OrderStatusHistory&amp;nbsp;–►" style="edgeStyle=orthogonalEdgeStyle;rounded=0;orthogonalLoop=1;jettySize=auto;html=1;fontStyle=1;endArrow=none;endFill=0;" parent="1" source="sZ7DzczUdxClGEDLlRU_-19" target="sZ7DzczUdxClGEDLlRU_-32" edge="1">
          <mxGeometry x="0.0602" y="15" relative="1" as="geometry">
            <Array as="points">
              <mxPoint x="2170" y="1365" />
              <mxPoint x="2170" y="1390" />
            </Array>
            <mxPoint as="offset" />
          </mxGeometry>
        </mxCell>
        <mxCell id="sZ7DzczUdxClGEDLlRU_-19" value=":OrderStatusService" style="html=1;whiteSpace=wrap;fontStyle=5" parent="1" vertex="1">
          <mxGeometry x="1990" y="1340" width="160" height="50" as="geometry" />
        </mxCell>
        <mxCell id="sZ7DzczUdxClGEDLlRU_-29" value=":KeycloakClient" style="html=1;whiteSpace=wrap;fontStyle=5" parent="1" vertex="1">
          <mxGeometry x="2180" y="1570" width="110" height="50" as="geometry" />
        </mxCell>
        <mxCell id="sZ7DzczUdxClGEDLlRU_-32" value="&amp;lt;&amp;lt; abstract &amp;gt;&amp;gt;&lt;br&gt;BaseService" style="html=1;whiteSpace=wrap;" parent="1" vertex="1">
          <mxGeometry x="2460" y="1380" width="160" height="50" as="geometry" />
        </mxCell>
        <mxCell id="srjXiNJBP8X4SIm5KkXF-1" value="&lt;span style=&quot;color: rgb(0, 0, 0); font-family: Helvetica; font-size: 11px; font-style: normal; font-variant-ligatures: normal; font-variant-caps: normal; font-weight: 700; letter-spacing: normal; orphans: 2; text-align: center; text-indent: 0px; text-transform: none; widows: 2; word-spacing: 0px; -webkit-text-stroke-width: 0px; background-color: rgb(255, 255, 255); text-decoration-thickness: initial; text-decoration-style: initial; text-decoration-color: initial; float: none; display: inline !important;&quot;&gt;Обновить статус –►&lt;/span&gt;" style="edgeStyle=orthogonalEdgeStyle;rounded=0;orthogonalLoop=1;jettySize=auto;html=1;endArrow=none;endFill=0;" edge="1" parent="1" source="sZ7DzczUdxClGEDLlRU_-39" target="sZ7DzczUdxClGEDLlRU_-5">
          <mxGeometry x="0.3684" y="15" relative="1" as="geometry">
            <mxPoint x="1450" y="1455" as="targetPoint" />
            <mxPoint as="offset" />
          </mxGeometry>
        </mxCell>
        <mxCell id="sZ7DzczUdxClGEDLlRU_-39" value="Customer" style="shape=umlActor;verticalLabelPosition=bottom;verticalAlign=top;html=1;outlineConnect=0;" parent="1" vertex="1">
          <mxGeometry x="1390" y="1425" width="30" height="60" as="geometry" />
        </mxCell>
      </root>
    </mxGraphModel>
  </diagram>
  <diagram id="XSvORW6YD-rVSTbJ36-P" name="implementation view">
    <mxGraphModel dx="7170" dy="3170" grid="1" gridSize="10" guides="1" tooltips="1" connect="1" arrows="1" fold="1" page="1" pageScale="1" pageWidth="850" pageHeight="1100" math="0" shadow="0">
      <root>
        <mxCell id="0" />
        <mxCell id="1" parent="0" />
        <mxCell id="vpi7X1gsXXavteeiZDuN-1" value="&lt;span style=&quot;border-color: var(--border-color); color: rgb(0, 0, 0); font-family: Helvetica; font-size: 11px; font-style: normal; font-variant-ligatures: normal; font-variant-caps: normal; letter-spacing: normal; orphans: 2; text-indent: 0px; text-transform: none; widows: 2; word-spacing: 0px; -webkit-text-stroke-width: 0px; background-color: rgb(255, 255, 255); text-decoration-thickness: initial; text-decoration-style: initial; text-decoration-color: initial; float: none; display: inline !important;&quot;&gt;2.1:&lt;/span&gt;&lt;span style=&quot;border-color: var(--border-color); color: rgb(0, 0, 0); font-family: Helvetica; font-size: 11px; font-style: normal; font-variant-ligatures: normal; font-variant-caps: normal; letter-spacing: normal; orphans: 2; text-indent: 0px; text-transform: none; widows: 2; word-spacing: 0px; -webkit-text-stroke-width: 0px; text-decoration-thickness: initial; text-decoration-style: initial; text-decoration-color: initial;&quot;&gt;raise_order_type()&lt;/span&gt;&lt;span style=&quot;border-color: var(--border-color); color: rgb(0, 0, 0); font-family: Helvetica; font-size: 11px; font-style: normal; font-variant-ligatures: normal; font-variant-caps: normal; letter-spacing: normal; orphans: 2; text-indent: 0px; text-transform: none; widows: 2; word-spacing: 0px; -webkit-text-stroke-width: 0px; text-decoration-thickness: initial; text-decoration-style: initial; text-decoration-color: initial;&quot;&gt;–►&lt;br&gt;&lt;/span&gt;2.2:raise_order_status_update&lt;span style=&quot;&quot;&gt;()&lt;/span&gt;&lt;span style=&quot;border-color: var(--border-color);&quot;&gt;–►&lt;/span&gt;&lt;br&gt;&lt;span style=&quot;border-color: var(--border-color);&quot;&gt;2.3:&lt;span style=&quot;border-color: var(--border-color);&quot;&gt;raise_ready_order_update&lt;/span&gt;&lt;/span&gt;&lt;span style=&quot;border-color: var(--border-color);&quot;&gt;&lt;span style=&quot;border-color: var(--border-color);&quot;&gt;()&lt;/span&gt;&lt;span style=&quot;border-color: var(--border-color);&quot;&gt;–►&lt;br&gt;4:&lt;/span&gt;&lt;/span&gt;update()&lt;b style=&quot;border-color: var(--border-color); text-align: center;&quot;&gt;–►&lt;/b&gt;" style="edgeStyle=orthogonalEdgeStyle;rounded=0;orthogonalLoop=1;jettySize=auto;html=1;endArrow=none;endFill=0;fontStyle=1;align=right;" edge="1" parent="1" source="vpi7X1gsXXavteeiZDuN-4" target="vpi7X1gsXXavteeiZDuN-8">
          <mxGeometry x="1" y="-35" relative="1" as="geometry">
            <mxPoint as="offset" />
          </mxGeometry>
        </mxCell>
        <mxCell id="vpi7X1gsXXavteeiZDuN-2" value="&lt;span&gt;&lt;span style=&quot;font-size: 11px; font-style: normal; font-variant-ligatures: normal; font-variant-caps: normal; letter-spacing: normal; orphans: 2; text-indent: 0px; text-transform: none; widows: 2; word-spacing: 0px; -webkit-text-stroke-width: 0px; background-color: rgb(255, 255, 255); text-decoration-thickness: initial; text-decoration-style: initial; text-decoration-color: initial; float: none; display: inline !important;&quot;&gt;1:&amp;nbsp;check_all_roles()&lt;/span&gt;&amp;nbsp;–►&lt;br&gt;&lt;span style=&quot;border-color: var(--border-color);&quot;&gt;1.1:get_user_data()&amp;nbsp;&lt;/span&gt;–►&lt;br&gt;1.2:get_token_data()&amp;nbsp;&lt;span style=&quot;border-color: var(--border-color);&quot;&gt;–►&lt;br&gt;&lt;/span&gt;&lt;/span&gt;&lt;span style=&quot;border-color: var(--border-color);&quot;&gt;1.3:get_token() –►&lt;br&gt;&lt;/span&gt;1.4:&lt;span style=&quot;font-size: 8.3pt;&quot;&gt;raise_user_customer_update_data()&lt;/span&gt;&lt;span style=&quot;border-color: var(--border-color);&quot;&gt;–►&lt;br&gt;1.5:&lt;/span&gt;raise_user_implementer_update_data()&lt;span style=&quot;border-color: var(--border-color);&quot;&gt;–►&lt;/span&gt;" style="edgeStyle=orthogonalEdgeStyle;rounded=0;orthogonalLoop=1;jettySize=auto;html=1;endArrow=none;endFill=0;fontStyle=1;align=right;" edge="1" parent="1" source="vpi7X1gsXXavteeiZDuN-4" target="vpi7X1gsXXavteeiZDuN-6">
          <mxGeometry x="0.6808" y="-55" relative="1" as="geometry">
            <Array as="points">
              <mxPoint x="480" y="1605" />
            </Array>
            <mxPoint as="offset" />
          </mxGeometry>
        </mxCell>
        <mxCell id="vpi7X1gsXXavteeiZDuN-3" value="&lt;span style=&quot;color: rgb(0, 0, 0); font-family: Helvetica; font-size: 11px; font-style: normal; font-variant-ligatures: normal; font-variant-caps: normal; letter-spacing: normal; orphans: 2; text-align: center; text-indent: 0px; text-transform: none; widows: 2; word-spacing: 0px; -webkit-text-stroke-width: 0px; background-color: rgb(255, 255, 255); text-decoration-thickness: initial; text-decoration-style: initial; text-decoration-color: initial; float: none; display: inline !important;&quot;&gt;3:&lt;/span&gt;create()&lt;span style=&quot;border-color: var(--border-color);&quot;&gt;–►&lt;/span&gt;" style="edgeStyle=orthogonalEdgeStyle;rounded=0;orthogonalLoop=1;jettySize=auto;html=1;entryX=0;entryY=0.5;entryDx=0;entryDy=0;exitX=0.5;exitY=0;exitDx=0;exitDy=0;endArrow=none;endFill=0;fontStyle=1" edge="1" parent="1" source="vpi7X1gsXXavteeiZDuN-4" target="vpi7X1gsXXavteeiZDuN-10">
          <mxGeometry x="0.7808" y="15" relative="1" as="geometry">
            <mxPoint as="offset" />
          </mxGeometry>
        </mxCell>
        <mxCell id="vpi7X1gsXXavteeiZDuN-4" value="&lt;b&gt;&lt;u&gt;:OrderController&lt;/u&gt;&lt;/b&gt;" style="html=1;whiteSpace=wrap;" vertex="1" parent="1">
          <mxGeometry x="400" y="1440" width="160" height="50" as="geometry" />
        </mxCell>
        <mxCell id="yx_rf-SSTnDtYFvINcBL-2" style="edgeStyle=orthogonalEdgeStyle;rounded=0;orthogonalLoop=1;jettySize=auto;html=1;endArrow=none;endFill=0;" edge="1" parent="1" source="vpi7X1gsXXavteeiZDuN-6" target="yx_rf-SSTnDtYFvINcBL-1">
          <mxGeometry relative="1" as="geometry" />
        </mxCell>
        <mxCell id="yx_rf-SSTnDtYFvINcBL-3" value="1.3.1:&amp;nbsp;verify_token()&amp;nbsp;–►&lt;br&gt;1.4.1:get_user_by_id()&lt;b style=&quot;border-color: var(--border-color);&quot;&gt;–►&lt;br&gt;1.5.1:get_user_by_id()&lt;b style=&quot;border-color: var(--border-color);&quot;&gt;–►&lt;/b&gt;&lt;br&gt;&lt;/b&gt;" style="edgeLabel;html=1;align=right;verticalAlign=middle;resizable=0;points=[];fontStyle=1" vertex="1" connectable="0" parent="yx_rf-SSTnDtYFvINcBL-2">
          <mxGeometry x="0.0893" y="2" relative="1" as="geometry">
            <mxPoint x="95" y="27" as="offset" />
          </mxGeometry>
        </mxCell>
        <mxCell id="vpi7X1gsXXavteeiZDuN-6" value=":Auth Manager" style="html=1;whiteSpace=wrap;fontStyle=5" vertex="1" parent="1">
          <mxGeometry x="760" y="1625" width="110" height="50" as="geometry" />
        </mxCell>
        <mxCell id="vpi7X1gsXXavteeiZDuN-7" value="4.1: _update –►" style="edgeStyle=orthogonalEdgeStyle;rounded=0;orthogonalLoop=1;jettySize=auto;html=1;fontStyle=1;endArrow=none;endFill=0;" edge="1" parent="1" source="vpi7X1gsXXavteeiZDuN-8" target="vpi7X1gsXXavteeiZDuN-12">
          <mxGeometry x="0.7101" y="10" relative="1" as="geometry">
            <Array as="points">
              <mxPoint x="960" y="1465" />
              <mxPoint x="960" y="1430" />
            </Array>
            <mxPoint as="offset" />
          </mxGeometry>
        </mxCell>
        <mxCell id="vpi7X1gsXXavteeiZDuN-8" value=":OrderService" style="html=1;whiteSpace=wrap;fontStyle=5" vertex="1" parent="1">
          <mxGeometry x="780" y="1440" width="160" height="50" as="geometry" />
        </mxCell>
        <mxCell id="vpi7X1gsXXavteeiZDuN-9" value="3.1:_create()–►" style="edgeStyle=orthogonalEdgeStyle;rounded=0;orthogonalLoop=1;jettySize=auto;html=1;fontStyle=1;endArrow=none;endFill=0;" edge="1" parent="1" source="vpi7X1gsXXavteeiZDuN-10" target="vpi7X1gsXXavteeiZDuN-12">
          <mxGeometry x="0.7015" y="10" relative="1" as="geometry">
            <Array as="points">
              <mxPoint x="960" y="1375" />
              <mxPoint x="960" y="1400" />
            </Array>
            <mxPoint as="offset" />
          </mxGeometry>
        </mxCell>
        <mxCell id="vpi7X1gsXXavteeiZDuN-10" value=":OrderStatusService" style="html=1;whiteSpace=wrap;fontStyle=5" vertex="1" parent="1">
          <mxGeometry x="780" y="1350" width="160" height="50" as="geometry" />
        </mxCell>
        <mxCell id="vpi7X1gsXXavteeiZDuN-12" value="&amp;lt;&amp;lt; abstract &amp;gt;&amp;gt;&lt;br&gt;BaseService" style="html=1;whiteSpace=wrap;" vertex="1" parent="1">
          <mxGeometry x="1250" y="1390" width="160" height="50" as="geometry" />
        </mxCell>
        <mxCell id="vpi7X1gsXXavteeiZDuN-13" value="&lt;span style=&quot;color: rgb(0, 0, 0); font-family: Helvetica; font-size: 11px; font-style: normal; font-variant-ligatures: normal; font-variant-caps: normal; font-weight: 700; letter-spacing: normal; orphans: 2; text-align: center; text-indent: 0px; text-transform: none; widows: 2; word-spacing: 0px; -webkit-text-stroke-width: 0px; background-color: rgb(255, 255, 255); text-decoration-thickness: initial; text-decoration-style: initial; text-decoration-color: initial; float: none; display: inline !important;&quot;&gt;Обновить статус –►&lt;/span&gt;" style="edgeStyle=orthogonalEdgeStyle;rounded=0;orthogonalLoop=1;jettySize=auto;html=1;endArrow=none;endFill=0;" edge="1" parent="1" source="vpi7X1gsXXavteeiZDuN-14" target="vpi7X1gsXXavteeiZDuN-4">
          <mxGeometry x="0.3684" y="15" relative="1" as="geometry">
            <mxPoint x="240" y="1465" as="targetPoint" />
            <mxPoint as="offset" />
          </mxGeometry>
        </mxCell>
        <mxCell id="vpi7X1gsXXavteeiZDuN-14" value="Customer" style="shape=umlActor;verticalLabelPosition=bottom;verticalAlign=top;html=1;outlineConnect=0;" vertex="1" parent="1">
          <mxGeometry x="180" y="1435" width="30" height="60" as="geometry" />
        </mxCell>
        <mxCell id="yx_rf-SSTnDtYFvINcBL-1" value=":KeycloakClient" style="html=1;whiteSpace=wrap;fontStyle=5" vertex="1" parent="1">
          <mxGeometry x="1080" y="1625" width="110" height="50" as="geometry" />
        </mxCell>
      </root>
    </mxGraphModel>
  </diagram>
</mxfile>
